<?xml version="1.0" encoding="UTF-8" standalone="no"?><!DOCTYPE svg PUBLIC "-//W3C//DTD SVG 1.1//EN" "http://www.w3.org/Graphics/SVG/1.1/DTD/svg11.dtd"><svg width="100%" height="100%" viewBox="0 0 1280 139" version="1.1" xmlns="http://www.w3.org/2000/svg" xmlns:xlink="http://www.w3.org/1999/xlink" xml:space="preserve" xmlns:serif="http://www.serif.com/" style="fill-rule:evenodd;clip-rule:evenodd;stroke-linejoin:round;stroke-miterlimit:2;"><g><path d="M75.659,1.06c-27.1,3.3 -50.7,15 -63.1,31c-17.5,22.8 -16.6,57.6 2,76.6c9.1,9.3 23.2,14.2 37.4,12.8c19.6,-1.8 32.4,-10.1 39.8,-25.5c3.5,-7.3 3.6,-7.8 3.6,-19.5c0,-11.4 -0.2,-12.3 -3.2,-18.7c-6.1,-13 -16.6,-20.9 -27.7,-21c-13.6,-0.1 -18.7,11.7 -6.5,15.4c3.5,1 5.2,0.9 11.1,-0.6l7,-1.8l2.4,2.3c1.3,1.3 3.7,4.8 5.2,7.8c2.5,5.1 2.7,6.6 2.7,17.1c0,10.5 -0.2,11.9 -2.7,16.5c-6.9,13.3 -21.5,20.4 -39.3,19.2c-5.9,-0.3 -9.9,-1.2 -13.8,-3c-13.5,-6.1 -21.7,-21.5 -21.7,-40.2c0,-15.5 4.6,-26.3 16.1,-37.7c6.1,-6.1 9.5,-8.6 17,-12.2c14.4,-6.9 26.8,-9.7 47.4,-10.3c27.6,-0.9 49.7,3.5 82.7,16.3c4.8,1.9 9.1,3.4 9.6,3.4c0.4,0 2.3,-1.3 4.2,-2.8l3.4,-2.9l-13,-5c-32,-12.6 -51.6,-17.1 -76.4,-17.8c-9.1,-0.2 -19.9,0 -24.2,0.6Z" style="fill-rule:nonzero;"/><path d="M1166.16,0.96c-16.8,1.8 -38.3,7.7 -62.7,17.3l-13,5l3.4,2.9c1.9,1.5 3.8,2.8 4.2,2.8c0.4,0 3.1,-1 6,-2.1c19.7,-7.9 41.2,-14 58,-16.5c16.6,-2.4 41.5,-1.5 55.8,2.1c16,3.9 27.5,10 36.9,19.3c11.5,11.4 16.1,22.2 16.1,37.7c0,9.3 -2.4,19.1 -6.4,25.9c-6.5,11.1 -15.5,16.5 -29.1,17.3c-17.8,1.2 -32.4,-5.9 -39.3,-19.2c-2.5,-4.6 -2.7,-6 -2.7,-16.5c0,-10.5 0.2,-12 2.7,-17.1c1.5,-3 3.9,-6.5 5.2,-7.8l2.4,-2.3l7,1.8c5.9,1.5 7.6,1.6 11.1,0.6c12.2,-3.7 7.1,-15.5 -6.5,-15.4c-11.1,0.1 -21.6,8 -27.7,21c-3,6.4 -3.2,7.3 -3.2,18.7c0,11.7 0.1,12.2 3.6,19.5c5.7,11.9 15.7,20.3 28.3,23.6c24.8,6.6 47.3,-2.4 57.4,-22.9c10.1,-20.5 7.5,-45.9 -6.7,-64.7c-17.6,-23.4 -57.3,-35.6 -100.8,-31Z" style="fill-rule:nonzero;"/><path d="M454.659,3.86c-7.5,2.4 -11.8,5.2 -17.2,11.2c-6.1,6.8 -8.1,13 -8,24.9c0.1,10.5 3.1,21.3 8,29.1c1.4,2.3 2.4,4.2 2.2,4.4c-0.2,0.2 -7.1,-3.5 -15.3,-8.2c-38.9,-22.3 -74.2,-39.4 -97.5,-47.3c-37.4,-12.8 -77.8,-14.2 -110,-3.8c-24.5,7.8 -44.4,24.3 -54.7,45.3c-4.6,9.3 -5.8,14.9 -5.7,26.5c0.1,8.9 0.5,11.6 2.7,17.4c8.6,22 28.1,35.6 51.2,35.6c9.6,0 16.6,-1.8 26,-6.4c13.2,-6.6 23,-16.4 23.5,-23.6c0.5,-6.2 -0.1,-8.3 -3.4,-11.6c-2.6,-2.6 -4.2,-3.4 -6.9,-3.4c-7.4,0 -11.1,6.8 -9.7,17.9c0.7,5.7 0.5,6 -7,10.3c-7.7,4.4 -15.2,6.1 -25.4,5.6c-7.7,-0.3 -10.1,-0.9 -15.9,-3.7c-18.7,-9 -28.5,-30.2 -23.2,-50.4c5.9,-22.7 29.5,-44 54.3,-49.2c9.3,-1.9 31,-2 41.7,-0.1c32.7,5.8 65.5,19.1 145,58.8c50.4,25.3 67.6,32.3 93.8,38.7c26.8,6.6 54.5,8.3 73.2,4.7c30.8,-6 51.4,-23.9 58.1,-50.5c2.5,-10 1.6,-24.9 -1.9,-32.3c-8.8,-18.2 -33.7,-26.3 -57.9,-18.8c-11.5,3.5 -18.8,10.6 -18.8,18.2c0,8.9 12.4,10.6 19.6,2.6c1.2,-1.2 3.2,-4.3 4.4,-6.8c1.3,-2.5 2.8,-4.8 3.4,-5.2c2,-1.4 17.1,-0.8 22.4,0.7c7.3,2.2 13.2,7 16.5,13.5c2.7,5.2 2.8,6.1 2.5,16.5c-0.3,10.3 -0.5,11.5 -4.1,18.9c-7.2,15.1 -22.1,26.4 -42.2,31.8c-11.8,3.1 -37.6,3.2 -52.7,0c-42.2,-8.8 -77,-33.7 -85.6,-61.2c-2.6,-8.4 -2.3,-23.3 0.5,-28.6c2.9,-5.4 9.3,-10.9 15.1,-12.8c4.7,-1.7 20.7,-2.2 22.8,-0.8c0.6,0.4 2.4,3.5 3.9,7c3.1,6.9 5.5,9.2 9.7,9.2c5.8,0 8.2,-6 5,-12.5c-5.4,-11.2 -26,-16.8 -42.4,-11.6Z" style="fill-rule:nonzero;"/><path d="M801.359,2.56c-15.2,3.8 -25,16.8 -17.9,23.8c1.9,2 6.3,2.1 9,0.2c1.1,-0.8 3.3,-4.3 4.9,-7.8c1.5,-3.5 3.3,-6.6 3.9,-7c2.1,-1.4 18.1,-0.9 22.8,0.8c5.8,1.9 12.2,7.4 15.1,12.8c2.8,5.3 3.1,20.2 0.5,28.6c-8.6,27.5 -43.4,52.4 -85.6,61.2c-15.1,3.2 -40.9,3.1 -52.7,0c-20.1,-5.4 -35,-16.7 -42.2,-31.8c-3.6,-7.4 -3.8,-8.6 -4.1,-18.9c-0.3,-10.4 -0.2,-11.3 2.5,-16.5c3.3,-6.5 9.2,-11.3 16.5,-13.5c5.3,-1.5 20.5,-2.1 22.4,-0.7c0.5,0.4 2,2.7 3.3,5.2c4.2,8.2 9.1,12 15.6,12c4.7,0 8.5,-3.6 8.5,-8.2c0,-7.2 -7.6,-14.4 -18.8,-17.8c-24.2,-7.5 -49.1,0.6 -57.9,18.8c-3.5,7.4 -4.4,22.3 -1.9,32.3c5.3,21.2 20.1,37.5 41.5,45.8c22.6,8.7 54.1,8.7 89.8,0c26.2,-6.4 43.4,-13.4 93.8,-38.7c79.5,-39.7 112.3,-53 145,-58.8c12,-2.1 33.2,-1.8 43.2,0.6c24.9,5.9 47,26.4 52.8,48.7c5.3,20.2 -4.5,41.4 -23.2,50.4c-13.1,6.3 -31.4,4.9 -43.7,-3.3l-4.9,-3.3l0.2,-8.8c0.2,-8.5 0.1,-8.8 -2.8,-11.7c-7.7,-7.8 -19.7,1 -17.1,12.5c1.3,5.6 5.5,11.1 12.3,16.2c12.1,9 24.1,13.3 37.2,13.3c38.9,0 64.8,-38.8 50.1,-75.1c-15.7,-38.8 -61.5,-60.8 -116.9,-56c-27,2.2 -47.6,7.9 -77.3,21.1c-17.1,7.6 -45.8,22.6 -69.9,36.3c-8.2,4.7 -15.1,8.4 -15.3,8.2c-0.2,-0.2 0.8,-2.1 2.2,-4.4c4.9,-7.8 7.9,-18.6 8,-29.1c0.1,-13.2 -1.9,-18.6 -9.8,-26.6c-8.1,-8 -14.5,-10.6 -27.6,-11c-5.2,-0.1 -10.4,-0.1 -11.5,0.2Z" style="fill-rule:nonzero;"/><path d="M205.659,33.96c-2,1.1 -3.9,2.4 -4.2,2.9c-0.9,1.3 49.8,23.7 80.4,35.4c8,3 24.9,9.1 37.5,13.5c12.7,4.4 23.7,8.3 24.5,8.6c0.8,0.4 2.3,1.9 3.2,3.6c3.3,5.9 14.8,6 15.6,0.2c0.7,-5 -5.4,-8.7 -26,-15.7c-31,-10.6 -79.8,-29.5 -102.6,-39.6c-13.5,-6 -24.5,-10.9 -24.6,-10.9c-0.1,0.1 -1.8,1 -3.8,2Z" style="fill-rule:nonzero;"/><path d="M1045.26,42.96c-22.4,10 -70.7,28.7 -102.2,39.5c-20.6,7 -26.7,10.7 -26,15.7c0.8,5.8 12.3,5.7 15.6,-0.2c0.9,-1.7 2.4,-3.2 3.2,-3.6c0.8,-0.3 11.9,-4.2 24.5,-8.6c12.7,-4.4 29.5,-10.5 37.5,-13.5c30.7,-11.8 81.3,-34.1 80.4,-35.4c-0.5,-0.9 -8,-5 -8.6,-4.8c-0.2,0 -11.2,4.9 -24.4,10.9Z" style="fill-rule:nonzero;"/><path d="M307.859,65.96c0,0.3 3.7,1.9 8.3,3.5c8.1,3 8.5,3 34,3.5c14.1,0.3 25.7,0.2 25.7,-0.1c0,-0.4 -2.8,-1.9 -6.2,-3.5l-6.3,-2.9l-27.8,-0.5c-15.2,-0.3 -27.7,-0.3 -27.7,0Z" style="fill-rule:nonzero;"/><path d="M943.359,65.96l-27,0.5l-6.2,2.9c-3.5,1.6 -6.3,3.1 -6.3,3.5c0,0.3 11.6,0.4 25.7,0.1c25.5,-0.5 25.9,-0.5 34.1,-3.5c4.5,-1.6 8.2,-3.3 8.2,-3.7c0,-0.5 -0.3,-0.7 -0.7,-0.6c-0.5,0.1 -12.9,0.5 -27.8,0.8Z" style="fill-rule:nonzero;"/><path d="M13.859,65.96l0,7l34.1,0c30.7,0 34.1,-0.2 33.5,-1.6c-0.3,-0.9 -0.6,-2.4 -0.6,-3.5c0,-1.8 -1.1,-1.9 -33.5,-1.9l-33.5,0Z" style="fill-rule:nonzero;"/><path d="M101.059,69.16l0.3,3.3l25.1,0.3l25.1,0.2l1,-3.5l1.1,-3.5l-52.9,0l0.3,3.2Z" style="fill-rule:nonzero;"/><path d="M176.459,66.86c-0.3,0.4 -1,2 -1.5,3.4l-1,2.7l46.9,0.2c25.9,0.2 47,0.1 47,-0.2c0,-0.3 -3.7,-2 -8.3,-3.8l-8.3,-3.2l-37.1,0c-20.5,0 -37.4,0.4 -37.7,0.9Z" style="fill-rule:nonzero;"/><path d="M454.459,69.46l2.6,3.5l159.8,0l0,-7l-165.1,0l2.7,3.5Z" style="fill-rule:nonzero;"/><path d="M662.859,65.96l0,7l159.8,0l2.6,-3.5l2.7,-3.5l-165.1,0Z" style="fill-rule:nonzero;"/><path d="M1019.66,69.26c-4.3,1.8 -7.8,3.4 -7.8,3.7c0,0.3 21.1,0.4 47,0.2l47,-0.2l-1.3,-3.3l-1.3,-3.2l-38,-0.2l-37.9,-0.1l-7.7,3.1Z" style="fill-rule:nonzero;"/><path d="M1127.16,69.46l1,3.5l24.8,0c26.5,0 25.9,0.1 25.9,-5.1c0,-1.8 -1,-1.9 -26.4,-1.9l-26.4,0l1.1,3.5Z" style="fill-rule:nonzero;"/><path d="M1198.86,67.86c0,1.1 -0.3,2.6 -0.6,3.5c-0.6,1.4 2.8,1.6 33.5,1.6l34.1,0l0,-7l-33.5,0c-32.4,0 -33.5,0.1 -33.5,1.9Z" style="fill-rule:nonzero;"/></g></svg>